<svg width="386" height="108" viewBox="0 0 386 108" fill="none" xmlns="http://www.w3.org/2000/svg">
<g clip-path="url(#clip0_1685_4148)">
<mask id="mask0_1685_4148" style="mask-type:luminance" maskUnits="userSpaceOnUse" x="0" y="2" width="106" height="106">
<path d="M0.396484 2.58789H105.396V107.588H0.396484V2.58789Z" fill="white"/>
</mask>
<g mask="url(#mask0_1685_4148)">
<path d="M105.355 55.1406C105.355 56.8594 105.272 58.5729 105.105 60.2813C104.934 61.9896 104.684 63.6875 104.35 65.3698C104.012 67.0573 103.595 68.7188 103.1 70.3646C102.6 72.0052 102.022 73.6198 101.366 75.2083C100.71 76.7969 99.9753 78.3438 99.1628 79.8594C98.3555 81.375 97.4753 82.849 96.5169 84.276C95.5638 85.7031 94.543 87.0781 93.4544 88.4063C92.3659 89.7344 91.2096 91.0052 89.9961 92.2188C88.7826 93.4375 87.5117 94.5885 86.1836 95.6771C84.8555 96.7656 83.4805 97.7865 82.0534 98.7448C80.6211 99.6979 79.1523 100.578 77.6367 101.391C76.1211 102.198 74.5742 102.932 72.9857 103.589C71.3971 104.245 69.7826 104.823 68.1419 105.323C66.4961 105.823 64.8346 106.24 63.1471 106.573C61.4648 106.906 59.7669 107.161 58.0586 107.328C56.3503 107.495 54.6367 107.578 52.918 107.578C51.1992 107.578 49.4857 107.495 47.7773 107.328C46.069 107.161 44.3711 106.906 42.6888 106.573C41.0013 106.24 39.3398 105.823 37.694 105.323C36.0534 104.823 34.4388 104.245 32.8503 103.589C31.2617 102.932 29.7148 102.198 28.1992 101.391C26.6836 100.578 25.2096 99.6979 23.7826 98.7448C22.3555 97.7865 20.9805 96.7656 19.6523 95.6771C18.3242 94.5885 17.0534 93.4375 15.8398 92.2188C14.6211 91.0052 13.4701 89.7344 12.3815 88.4063C11.293 87.0781 10.2721 85.7031 9.3138 84.276C8.36068 82.849 7.48047 81.375 6.67318 79.8594C5.86068 78.3438 5.1263 76.7969 4.47005 75.2083C3.8138 73.6198 3.23568 72.0052 2.73568 70.3646C2.23568 68.7188 1.81901 67.0573 1.48568 65.3698C1.15234 63.6875 0.897135 61.9896 0.730469 60.2813C0.563802 58.5729 0.480469 56.8594 0.480469 55.1406C0.480469 53.4219 0.563802 51.7083 0.730469 50C0.897135 48.2917 1.15234 46.5938 1.48568 44.9115C1.81901 43.224 2.23568 41.5625 2.73568 39.9167C3.23568 38.276 3.8138 36.6615 4.47005 35.0729C5.1263 33.4896 5.86068 31.9375 6.67318 30.4219C7.48047 28.9063 8.36068 27.4375 9.3138 26.0052C10.2721 24.5781 11.293 23.2031 12.3815 21.875C13.4701 20.5469 14.6211 19.276 15.8398 18.0625C17.0534 16.849 18.3242 15.6927 19.6523 14.6042C20.9805 13.5156 22.3555 12.4948 23.7826 11.5417C25.2096 10.5833 26.6836 9.70313 28.1992 8.89583C29.7148 8.08333 31.2617 7.34896 32.8503 6.69271C34.4388 6.03646 36.0534 5.45833 37.694 4.95833C39.3398 4.46354 41.0013 4.04687 42.6888 3.70833C44.3711 3.375 46.069 3.125 47.7773 2.95313C49.4857 2.78646 51.1992 2.70312 52.918 2.70312C54.6367 2.70312 56.3503 2.78646 58.0586 2.95313C59.7669 3.125 61.4648 3.375 63.1471 3.70833C64.8346 4.04687 66.4961 4.46354 68.1419 4.95833C69.7826 5.45833 71.3971 6.03646 72.9857 6.69271C74.5742 7.34896 76.1211 8.08333 77.6367 8.89583C79.1523 9.70313 80.6211 10.5833 82.0534 11.5417C83.4805 12.4948 84.8555 13.5156 86.1836 14.6042C87.5117 15.6927 88.7826 16.849 89.9961 18.0625C91.2096 19.276 92.3659 20.5469 93.4544 21.875C94.543 23.2031 95.5638 24.5781 96.5169 26.0052C97.4753 27.4375 98.3555 28.9063 99.1628 30.4219C99.9753 31.9375 100.71 33.4896 101.366 35.0729C102.022 36.6615 102.6 38.276 103.1 39.9167C103.595 41.5625 104.012 43.224 104.35 44.9115C104.684 46.5938 104.934 48.2917 105.105 50C105.272 51.7083 105.355 53.4219 105.355 55.1406Z" fill="#1C7293"/>
</g>
<mask id="mask1_1685_4148" style="mask-type:luminance" maskUnits="userSpaceOnUse" x="11" y="17" width="79" height="91">
<path d="M11.334 17H90.0007V107.589H11.334V17Z" fill="white"/>
</mask>
<g mask="url(#mask1_1685_4148)">
<path fill-rule="evenodd" clip-rule="evenodd" d="M60.3294 23.5527C61.2253 22.9746 61.8138 21.9694 61.8138 20.8288C61.8138 19.0371 60.3607 17.584 58.569 17.584C56.7773 17.584 55.3242 19.0371 55.3242 20.8288C55.3242 21.9694 55.918 22.9746 56.8086 23.5527H56.668V32.8809C56.668 35.2819 55.6576 37.5736 53.8919 39.1986L53.4961 39.5579V31.8392C54.3138 31.2507 54.8451 30.2923 54.8451 29.2038C54.8451 27.4121 53.3919 25.9642 51.6003 25.9642C49.8086 25.9642 48.3555 27.4121 48.3555 29.2038C48.3555 30.2871 48.8867 31.2454 49.6992 31.834V51.6309L48.2982 50.1934C48.319 50.0319 48.3346 49.8704 48.3346 49.7038C48.3346 47.9121 46.8815 46.459 45.0898 46.459C43.2982 46.459 41.8451 47.9121 41.8451 49.7038C41.8451 51.4954 43.2982 52.9486 45.0898 52.9486C45.2773 52.9486 45.4596 52.9329 45.6367 52.9017L49.6992 57.0632V64.7194L44.7565 60.0059C41.4701 56.8757 39.6107 52.5319 39.6107 47.9902V44.2975L43.3867 40.6309C43.7044 40.7715 44.0586 40.8496 44.4284 40.8496C45.8607 40.8496 47.0169 39.6934 47.0169 38.2663C47.0169 36.834 45.8607 35.6777 44.4284 35.6777C43.0013 35.6777 41.8451 36.834 41.8451 38.2663C41.8451 38.7663 41.9857 39.235 42.2357 39.6309L39.6107 42.1777V38.0423C40.5221 37.6413 41.1523 36.735 41.1523 35.6777C41.1523 34.2507 39.9961 33.0892 38.569 33.0892C37.1419 33.0892 35.9805 34.2507 35.9805 35.6777C35.9805 36.9434 36.8919 37.9954 38.0951 38.2194V46.1725L35.5273 43.6465C33.0065 41.1621 31.5534 37.7975 31.4701 34.2663C32.5273 33.9382 33.293 32.9538 33.293 31.7923C33.293 30.3652 32.1367 29.2038 30.7096 29.2038C29.2773 29.2038 28.1211 30.3652 28.1211 31.7923C28.1211 32.959 28.8919 33.9434 29.9544 34.2663C30.0378 38.2038 31.6523 41.959 34.4648 44.7298L38.0951 48.3079C38.1836 53.1517 40.1992 57.7611 43.7096 61.1048L49.6992 66.8184V69.7767L34.0117 53.9954C34.069 53.6673 34.1003 53.3288 34.1003 52.985C34.1003 49.9225 31.6211 47.4434 28.5638 47.4434C25.5065 47.4434 23.0221 49.9225 23.0221 52.985C23.0221 56.0423 25.5065 58.5215 28.5638 58.5215C29.1419 58.5215 29.7044 58.4329 30.2305 58.2663L38.6523 66.7454H34.3346C31.918 66.7454 29.569 65.9277 27.6732 64.4225L21.5378 58.7142C21.5378 58.6517 21.543 58.5892 21.543 58.5215C21.543 56.6517 20.0273 55.1361 18.1576 55.1361C16.2878 55.1361 14.7721 56.6517 14.7721 58.5215C14.7721 60.3913 16.2878 61.9069 18.1576 61.9069C18.3659 61.9069 18.5742 61.8913 18.7773 61.8496L20.9961 63.9173H17.3971C16.7773 63.1569 15.8294 62.6673 14.7721 62.6673C12.9023 62.6673 11.3867 64.1829 11.3867 66.0527C11.3867 67.9225 12.9023 69.4382 14.7721 69.4382C15.8763 69.4382 16.8555 68.9121 17.4753 68.0944H25.6055C28.1419 69.9277 31.194 70.9173 34.3346 70.9173H41.293C41.9128 70.9173 42.5169 71.0215 43.0951 71.209L46.7305 74.8704C46.9128 75.4329 47.0117 76.0319 47.0117 76.6361V107.256L48.6471 107.407L50.2513 107.506L51.8711 107.584H53.4961V44.709L56.4544 41.9954C58.7982 39.8444 60.2148 36.8861 60.4336 33.735L67.4232 27.2767C67.5898 27.3027 67.7617 27.3184 67.9336 27.3184C69.7253 27.3184 71.1784 25.8652 71.1784 24.0736C71.1784 22.2819 69.7253 20.8288 67.9336 20.8288C66.1419 20.8288 64.6888 22.2819 64.6888 24.0736C64.6888 24.2507 64.7044 24.4277 64.7305 24.5944L60.4648 28.5423V23.5527H60.3294ZM15.2878 66.0527C15.2878 66.3392 15.0586 66.5736 14.7721 66.5736C14.4857 66.5736 14.2513 66.3392 14.2513 66.0527C14.2513 65.7663 14.4857 65.5371 14.7721 65.5371C15.0586 65.5371 15.2878 65.7663 15.2878 66.0527ZM38.9648 35.6777C38.9648 35.8965 38.7878 36.0736 38.569 36.0736C38.3503 36.0736 38.1732 35.8965 38.1732 35.6777C38.1732 35.459 38.3503 35.2819 38.569 35.2819C38.7878 35.2819 38.9648 35.459 38.9648 35.6777ZM44.4284 38.6621C44.6523 38.6621 44.8294 38.485 44.8294 38.2663C44.8294 38.0475 44.6523 37.8652 44.4284 37.8652C44.2096 37.8652 44.0326 38.0475 44.0326 38.2663C44.0326 38.485 44.2096 38.6621 44.4284 38.6621ZM51.6003 29.7038C51.8763 29.7038 52.1003 29.4798 52.1003 29.2038C52.1003 28.9329 51.8763 28.709 51.6003 28.709C51.3242 28.709 51.1003 28.9329 51.1003 29.2038C51.1003 29.4798 51.3242 29.7038 51.6003 29.7038ZM45.5898 49.7038C45.5898 49.9798 45.3659 50.2038 45.0898 50.2038C44.8138 50.2038 44.5898 49.9798 44.5898 49.7038C44.5898 49.4277 44.8138 49.2038 45.0898 49.2038C45.3659 49.2038 45.5898 49.4277 45.5898 49.7038ZM67.9336 24.5736C68.2096 24.5736 68.4336 24.3496 68.4336 24.0736C68.4336 23.7975 68.2096 23.5736 67.9336 23.5736C67.6576 23.5736 67.4336 23.7975 67.4336 24.0736C67.4336 24.3496 67.6576 24.5736 67.9336 24.5736ZM30.1732 52.985C30.1732 53.8757 29.4544 54.5944 28.5638 54.5944C27.6732 54.5944 26.9544 53.8757 26.9544 52.985C26.9544 52.0944 27.6732 51.3757 28.5638 51.3757C29.4544 51.3757 30.1732 52.0944 30.1732 52.985ZM71.0221 64.0788L77.8867 57.2975C78.0898 57.334 78.3034 57.3548 78.5221 57.3548C80.4128 57.3548 81.9492 55.8184 81.9492 53.9225C81.9492 52.0319 80.4128 50.4954 78.5221 50.4954C76.6263 50.4954 75.0898 52.0319 75.0898 53.9225C75.0898 54.3236 75.1576 54.709 75.2826 55.0632L68.6211 61.6465C62.9336 67.2663 59.7305 74.9277 59.7305 82.9277V107.141L61.444 106.891L63.1471 106.589V82.9277C63.1471 75.8444 65.9857 69.0527 71.0221 64.0788ZM84.569 64.4902L84.3607 64.6934C81.6055 67.3861 77.9336 68.9277 74.0951 69.0059L70.6992 72.4486H78.5378C80.9753 72.4486 83.3242 71.5267 85.1055 69.8757C84.9128 69.5267 84.8034 69.1204 84.8034 68.6934C84.8034 67.334 85.9076 66.235 87.2669 66.235C88.6263 66.235 89.7253 67.334 89.7253 68.6934C89.7253 70.0527 88.6263 71.1569 87.2669 71.1569C86.8919 71.1569 86.5326 71.0684 86.2148 70.9225C84.1419 72.8757 81.3971 73.9642 78.5378 73.9642H69.2096C67.2148 76.1048 66.1003 78.9225 66.1003 81.86V105.923L64.5794 106.277V81.86C64.5794 78.4225 65.9336 75.1204 68.3451 72.6725L77.6211 63.2663C77.3451 62.8704 77.1888 62.3913 77.1888 61.8757C77.1888 60.5163 78.2878 59.4121 79.6471 59.4121C81.0065 59.4121 82.1107 60.5163 82.1107 61.8757C82.1107 63.235 81.0065 64.334 79.6471 64.334C79.3607 64.334 79.0898 64.2871 78.8346 64.1986L75.7253 67.3496C78.5638 66.9382 81.2201 65.6413 83.2982 63.61L83.4909 63.4225C83.3138 63.084 83.2148 62.6986 83.2148 62.2871C83.2148 60.9277 84.3138 59.8288 85.6732 59.8288C87.0326 59.8288 88.1315 60.9277 88.1315 62.2871C88.1315 63.6465 87.0326 64.7507 85.6732 64.7507C85.2773 64.7507 84.9023 64.6569 84.569 64.4902ZM79.6471 62.6361C80.069 62.6361 80.4076 62.2923 80.4076 61.8757C80.4076 61.4538 80.069 61.1152 79.6471 61.1152C79.2305 61.1152 78.8867 61.4538 78.8867 61.8757C78.8867 62.2923 79.2305 62.6361 79.6471 62.6361ZM86.4336 62.2871C86.4336 62.709 86.0951 63.0475 85.6732 63.0475C85.2513 63.0475 84.9128 62.709 84.9128 62.2871C84.9128 61.8704 85.2513 61.5267 85.6732 61.5267C86.0951 61.5267 86.4336 61.8704 86.4336 62.2871ZM87.2669 69.4538C87.6836 69.4538 88.0273 69.1152 88.0273 68.6934C88.0273 68.2715 87.6836 67.9329 87.2669 67.9329C86.8451 67.9329 86.5065 68.2715 86.5065 68.6934C86.5065 69.1152 86.8451 69.4538 87.2669 69.4538ZM70.1888 40.8809V37.2246C70.9596 36.7819 71.4753 35.959 71.4753 35.0059C71.4753 33.5944 70.3294 32.4486 68.9128 32.4486C67.5013 32.4486 66.3555 33.5944 66.3555 35.0059C66.3555 36.0684 66.9961 36.9746 67.9128 37.3652V48.9902L62.6211 54.1777V48.6517C63.3659 48.2038 63.8607 47.3913 63.8607 46.459C63.8607 45.0475 62.7148 43.9017 61.3034 43.9017C59.8919 43.9017 58.7461 45.0475 58.7461 46.459C58.7461 47.5371 59.4076 48.4538 60.3451 48.834V56.4173L58.2044 58.5163C56.3971 60.2871 55.3815 62.7142 55.3815 65.2454V107.527L56.7148 107.443L57.6576 107.37V66.0527C57.6576 64.2819 58.3138 61.7715 59.4961 60.459C63.2044 60.3392 66.7513 58.8809 69.4753 56.3444C69.7305 56.4329 70.0117 56.4798 70.2982 56.4798C71.7148 56.4798 72.8607 55.3392 72.8607 53.9225C72.8607 52.5111 71.7148 51.3652 70.2982 51.3652C68.8867 51.3652 67.7409 52.5111 67.7409 53.9225C67.7409 54.2038 67.7878 54.4746 67.8711 54.7246C66.2513 56.2194 64.293 57.2663 62.1888 57.7975L70.1523 49.9798H70.1576L72.668 47.5007C72.8815 47.5579 73.1055 47.5892 73.3398 47.5892C74.7513 47.5892 75.8971 46.4434 75.8971 45.0319C75.8971 43.6152 74.7513 42.4746 73.3398 42.4746C71.9284 42.4746 70.7826 43.6152 70.7826 45.0319C70.7826 45.3652 70.8451 45.6882 70.9648 45.985L70.1888 46.7454V43.8496L73.1315 41.3913C73.3763 41.4694 73.6367 41.5111 73.9023 41.5111C75.319 41.5111 76.4648 40.3652 76.4648 38.9486C76.4648 37.5371 75.319 36.3913 73.9023 36.3913C72.4909 36.3913 71.3451 37.5371 71.3451 38.9486C71.3451 39.2454 71.3971 39.5319 71.4909 39.7923L70.1888 40.8809ZM62.3607 46.459C62.3607 47.0475 61.8867 47.5215 61.3034 47.5215C60.7201 47.5215 60.2461 47.0475 60.2461 46.459C60.2461 45.8757 60.7201 45.4017 61.3034 45.4017C61.8867 45.4017 62.3607 45.8757 62.3607 46.459ZM68.9128 36.0684C69.5013 36.0684 69.9753 35.5944 69.9753 35.0059C69.9753 34.4225 69.5013 33.9486 68.9128 33.9486C68.3294 33.9486 67.8555 34.4225 67.8555 35.0059C67.8555 35.5944 68.3294 36.0684 68.9128 36.0684ZM74.9648 38.9486C74.9648 39.5371 74.4909 40.0111 73.9023 40.0111C73.319 40.0111 72.8451 39.5371 72.8451 38.9486C72.8451 38.3652 73.319 37.8913 73.9023 37.8913C74.4909 37.8913 74.9648 38.3652 74.9648 38.9486ZM73.3398 46.0892C73.9232 46.0892 74.3971 45.6152 74.3971 45.0319C74.3971 44.4434 73.9232 43.9694 73.3398 43.9694C72.7565 43.9694 72.2826 44.4434 72.2826 45.0319C72.2826 45.6152 72.7565 46.0892 73.3398 46.0892ZM71.3607 53.9225C71.3607 54.5111 70.8867 54.985 70.2982 54.985C69.7148 54.985 69.2409 54.5111 69.2409 53.9225C69.2409 53.3392 69.7148 52.8652 70.2982 52.8652C70.8867 52.8652 71.3607 53.3392 71.3607 53.9225ZM19.3294 58.5944C19.3294 59.209 18.8294 59.7038 18.2201 59.7038C17.6055 59.7038 17.1107 59.209 17.1107 58.5944C17.1107 57.985 17.6055 57.485 18.2201 57.485C18.8294 57.485 19.3294 57.985 19.3294 58.5944ZM78.5326 55.3132C79.2721 55.3132 79.8763 54.709 79.8763 53.9642C79.8763 53.2246 79.2721 52.6204 78.5326 52.6204C77.7878 52.6204 77.1836 53.2246 77.1836 53.9642C77.1836 54.709 77.7878 55.3132 78.5326 55.3132ZM59.9701 20.7298C59.9701 21.5163 59.3346 22.1569 58.5482 22.1569C57.7617 22.1569 57.1211 21.5163 57.1211 20.7298C57.1211 19.9434 57.7617 19.3027 58.5482 19.3027C59.3346 19.3027 59.9701 19.9434 59.9701 20.7298ZM30.7096 32.9642C31.319 32.9642 31.819 32.4694 31.819 31.8548C31.819 31.2454 31.319 30.7507 30.7096 30.7507C30.0951 30.7507 29.6003 31.2454 29.6003 31.8548C29.6003 32.4694 30.0951 32.9642 30.7096 32.9642Z" fill="white"/>
</g>
<path d="M131.604 48.8574C126.729 48.8574 122.567 47.8158 119.124 45.7324C115.692 43.6491 113.083 40.8053 111.291 37.1908C109.499 33.5814 108.604 29.4512 108.604 24.7949V24.2533C108.604 20.7949 109.15 17.597 110.249 14.6491C111.359 11.7064 112.937 9.13867 114.979 6.94076C117.02 4.74805 119.442 3.03971 122.249 1.81576C125.067 0.597005 128.187 -0.0175781 131.604 -0.0175781C134.739 -0.0175781 137.687 0.498047 140.437 1.52409C143.187 2.53971 145.499 4.15951 147.374 6.37826C149.26 8.58659 150.447 11.4928 150.937 15.0866H145.166C144.499 11.2689 142.958 8.56576 140.541 6.98242C138.124 5.38867 135.187 4.58659 131.729 4.58659C128.088 4.58659 124.989 5.41992 122.437 7.08659C119.895 8.74284 117.947 11.0345 116.604 13.9616C115.255 16.8783 114.583 20.2897 114.583 24.1908V24.7116C114.583 28.6178 115.218 32.0345 116.499 34.9616C117.791 37.8783 119.697 40.1491 122.229 41.7741C124.755 43.3887 127.88 44.1908 131.604 44.1908C135.046 44.1908 137.854 43.5189 140.02 42.1699C142.197 40.8262 143.817 38.998 144.874 36.6908C145.942 34.3887 146.505 31.8366 146.562 29.0449H132.666V24.2533H152.208V27.7741C152.208 32.347 151.333 36.2064 149.583 39.3574C147.833 42.498 145.416 44.8678 142.333 46.4616C139.249 48.0605 135.671 48.8574 131.604 48.8574Z" fill="#1C7293"/>
<path d="M162.23 48.2526V0.710938H189.96V5.4401H168.022V21.5859H185.71V26.3151H168.022V43.5234H191.147V48.2526H162.23Z" fill="#1C7293"/>
<path d="M209.955 48.2526V5.4401H196.143V0.710938H229.58V5.4401H215.747V48.2526H209.955Z" fill="#1C7293"/>
<path d="M247.576 48.2526V5.4401H233.764V0.710938H267.201V5.4401H253.368V48.2526H247.576Z" fill="#1C7293"/>
<path d="M275.76 48.2526V0.710938H281.551V48.2526H275.76Z" fill="#1C7293"/>
<path d="M294.17 48.2526V0.710938H301.691L324.816 40.0026V0.710938H330.337V48.2526H323.691L299.691 7.5026V48.2526H294.17Z" fill="#1C7293"/>
<path d="M363.314 48.8574C358.439 48.8574 354.278 47.8158 350.835 45.7324C347.403 43.6491 344.794 40.8053 343.002 37.1908C341.21 33.5814 340.314 29.4512 340.314 24.7949V24.2533C340.314 20.7949 340.861 17.597 341.96 14.6491C343.07 11.7064 344.648 9.13867 346.689 6.94076C348.731 4.74805 351.153 3.03971 353.96 1.81576C356.778 0.597005 359.898 -0.0175781 363.314 -0.0175781C366.45 -0.0175781 369.398 0.498047 372.148 1.52409C374.898 2.53971 377.21 4.15951 379.085 6.37826C380.971 8.58659 382.158 11.4928 382.648 15.0866H376.877C376.21 11.2689 374.669 8.56576 372.252 6.98242C369.835 5.38867 366.898 4.58659 363.439 4.58659C359.799 4.58659 356.7 5.41992 354.148 7.08659C351.606 8.74284 349.658 11.0345 348.314 13.9616C346.965 16.8783 346.294 20.2897 346.294 24.1908V24.7116C346.294 28.6178 346.929 32.0345 348.21 34.9616C349.502 37.8783 351.408 40.1491 353.939 41.7741C356.465 43.3887 359.59 44.1908 363.314 44.1908C366.757 44.1908 369.564 43.5189 371.731 42.1699C373.908 40.8262 375.528 38.998 376.585 36.6908C377.653 34.3887 378.215 31.8366 378.273 29.0449H364.377V24.2533H383.919V27.7741C383.919 32.347 383.044 36.2064 381.294 39.3574C379.544 42.498 377.127 44.8678 374.044 46.4616C370.96 48.0605 367.382 48.8574 363.314 48.8574Z" fill="#1C7293"/>
<path d="M130.926 107.026C123.993 107.026 118.686 105.641 115.009 102.859C111.342 100.083 109.415 95.9167 109.238 90.3594H124.03C124.165 91.9323 124.717 93.2656 125.676 94.3594C126.645 95.4583 128.395 96.0052 130.926 96.0052C132.759 96.0052 134.118 95.6302 135.009 94.8802C135.91 94.1198 136.363 93.1406 136.363 91.9427C136.363 90.625 135.853 89.6875 134.842 89.1302C133.827 88.5781 131.993 88.1198 129.342 87.7552C124.603 87.2031 120.848 86.3385 118.072 85.1719C115.29 84.0052 113.306 82.349 112.113 80.1927C110.931 78.026 110.342 75.2708 110.342 71.9219C110.342 68.8958 111.134 66.2031 112.717 63.8385C114.301 61.4792 116.556 59.625 119.488 58.276C122.431 56.9167 125.947 56.2344 130.03 56.2344C136.124 56.2344 140.848 57.5052 144.197 60.0469C147.54 62.5885 149.426 66.5469 149.842 71.9219H135.384C135.02 68.7552 133.238 67.1719 130.03 67.1719C128.415 67.1719 127.197 67.5052 126.363 68.1719C125.54 68.8385 125.134 69.7031 125.134 70.7552C125.134 71.8958 125.598 72.776 126.53 73.401C127.473 74.026 129.301 74.5208 132.009 74.8802C136.145 75.2969 139.645 76.0208 142.509 77.0469C145.384 78.0781 147.561 79.625 149.051 81.6927C150.551 83.7656 151.301 86.6302 151.301 90.2969C151.301 93.3281 150.514 96.1198 148.947 98.6719C147.389 101.214 145.098 103.245 142.072 104.755C139.04 106.266 135.327 107.026 130.926 107.026Z" fill="#1C7293"/>
<path d="M163.279 106.13V56.9219H183.508L191.842 80.7969L200.3 56.9219H220.133V106.13H204.633V77.0885L193.425 106.13H188.196L177.175 77.0885V106.13H163.279Z" fill="#1C7293"/>
<path d="M231.295 106.13L246.774 56.9219H266.941L282.357 106.13H265.837L263.566 97.9427H248.024L245.816 106.13H231.295ZM255.857 69.5052L250.982 87.3385H260.691L255.857 69.5052Z" fill="#1C7293"/>
<path d="M293.389 106.13V56.9219H313.493C320.285 56.9219 325.41 58.2656 328.868 60.9427C332.326 63.625 334.055 67.6042 334.055 72.8802V73.151C334.055 76.5573 333.274 79.276 331.722 81.3177C330.165 83.3594 328.17 84.9323 325.743 86.026L336.951 106.13H320.576L311.41 89.276H308.93V106.13H293.389ZM308.93 79.2135H312.597C316.857 79.2135 318.993 77.4219 318.993 73.8385V73.5677C318.993 71.776 318.462 70.5052 317.41 69.7552C316.352 68.9948 314.769 68.6094 312.66 68.6094H308.93V79.2135Z" fill="#1C7293"/>
<path d="M357.478 106.13V68.901H345.082V56.9219H385.624V68.901H373.165V106.13H357.478Z" fill="#1C7293"/>
</g>
<defs>
<clipPath id="clip0_1685_4148">
<rect width="386" height="108" fill="white"/>
</clipPath>
</defs>
</svg>
